<?xml version="1.0" standalone="no"?>
<!DOCTYPE svg PUBLIC "-//W3C//DTD SVG 20010904//EN"
 "http://www.w3.org/TR/2001/REC-SVG-20010904/DTD/svg10.dtd">
<svg version="1.0" xmlns="http://www.w3.org/2000/svg"
 width="866.000000pt" height="650.000000pt" viewBox="0 0 866.000000 650.000000"
 preserveAspectRatio="xMidYMid meet">

<g transform="translate(0.000000,650.000000) scale(0.100000,-0.100000)"
fill="#000000" stroke="none">
<path d="M4290 6170 c-132 -20 -236 -76 -329 -175 -69 -74 -104 -137 -127
-228 -30 -114 -24 -134 194 -698 758 -1955 1746 -4445 1793 -4519 53 -84 118
-133 229 -170 79 -26 207 -29 294 -5 149 40 294 153 355 276 72 147 66 248
-29 475 -33 79 -106 266 -164 416 -276 722 -636 1646 -1136 2913 -160 407
-352 895 -426 1085 -166 426 -163 420 -226 486 -108 114 -269 168 -428 144z"/>
<path d="M3332 4560 c-22 -47 -61 -141 -87 -210 -25 -69 -124 -316 -220 -550
-419 -1027 -1079 -2710 -1100 -2803 -12 -56 -16 -107 -13 -180 4 -92 8 -109
39 -172 62 -127 175 -227 317 -282 58 -23 82 -27 187 -27 166 -1 235 22 320
108 120 122 201 301 502 1101 l68 180 165 6 c91 3 346 7 568 8 221 0 402 3
402 4 0 14 -280 742 -311 810 l-12 27 -254 0 -253 0 6 28 c6 25 45 138 185
541 l50 143 -56 157 c-52 144 -262 687 -404 1046 l-59 150 -40 -85z"/>
</g>
</svg>
